# xmcd CD database file
# Copyright (C) 1993-1998 Ti Kan
# 
# Track frame offsets:
#     150
#     11965
#     25642
#     36460
#     51175
#     64112
#     77075
#     87910
#     109575
#     124407
#     134992
# 
# Disc length: 2029 seconds
# 
# Revision: 1
# Processed by: cddbd v1.4b41PL1 Copyright (c) Steve Scherf et al.
# Submitted via: DiscPlay 4.0.4
# 
DISCID=9b07eb0b
DTITLE=File - 2 Left Feet
DYEAR=1900
DGENRE=
TTITLE0=Perrodin Two Step
TTITLE1=Quoi Faire
TTITLE2=La Valse a Duex Temps
TTITLE3=Les Blues A Cleoma
TTITLE4=Chanson D Amour Pour Elle
TTITLE5=Two Left Feet
TTITLE6=Little Foot Stomp
TTITLE7=Tribute to Clifton Chenier
TTITLE8=Last Waltz
TTITLE9='Tit Gallop Pour Mamou
TTITLE10=Hard Times
EXTD=
EXTT0=
EXTT1=
EXTT2=
EXTT3=
EXTT4=
EXTT5=
EXTT6=
EXTT7=
EXTT8=
EXTT9=
EXTT10=
PLAYORDER=
